%TF.GenerationSoftware,KiCad,Pcbnew,7.0.6*%
%TF.CreationDate,2023-07-29T04:39:01-03:00*%
%TF.ProjectId,OpenLabGeniosNano_V1,4f70656e-4c61-4624-9765-6e696f734e61,V1.0*%
%TF.SameCoordinates,Original*%
%TF.FileFunction,Soldermask,Top*%
%TF.FilePolarity,Negative*%
%FSLAX46Y46*%
G04 Gerber Fmt 4.6, Leading zero omitted, Abs format (unit mm)*
G04 Created by KiCad (PCBNEW 7.0.6) date 2023-07-29 04:39:02*
%MOMM*%
%LPD*%
G01*
G04 APERTURE LIST*
%ADD10C,1.400000*%
%ADD11O,1.400000X1.400000*%
%ADD12R,1.700000X1.700000*%
%ADD13O,1.700000X1.700000*%
%ADD14C,1.440000*%
%ADD15R,2.000000X2.000000*%
%ADD16C,2.000000*%
%ADD17R,1.600000X1.600000*%
%ADD18O,1.600000X1.600000*%
%ADD19C,1.600000*%
%ADD20R,1.800000X1.800000*%
%ADD21C,1.800000*%
%ADD22C,5.400000*%
%ADD23O,1.600000X2.000000*%
%ADD24C,3.500000*%
%ADD25C,1.700000*%
%ADD26R,1.300000X1.300000*%
%ADD27C,1.300000*%
%ADD28O,2.200000X3.500000*%
%ADD29R,1.500000X2.500000*%
%ADD30O,1.500000X2.500000*%
%ADD31C,1.500000*%
%ADD32C,2.600000*%
%ADD33R,3.600000X3.600000*%
%ADD34C,3.600000*%
G04 APERTURE END LIST*
D10*
%TO.C,R13*%
X95520000Y-50440000D03*
D11*
X100600000Y-50440000D03*
%TD*%
D12*
%TO.C,J6*%
X122535000Y-29315000D03*
D13*
X125075000Y-29315000D03*
X127615000Y-29315000D03*
X130155000Y-29315000D03*
X132695000Y-29315000D03*
X135235000Y-29315000D03*
%TD*%
D12*
%TO.C,J4*%
X122285000Y-49740000D03*
D13*
X124825000Y-49740000D03*
%TD*%
D10*
%TO.C,R4*%
X123460000Y-92950000D03*
D11*
X128540000Y-92950000D03*
%TD*%
D14*
%TO.C,RV1*%
X112340000Y-99255000D03*
X109800000Y-94175000D03*
X107260000Y-99255000D03*
%TD*%
D12*
%TO.C,J1*%
X113860000Y-55465000D03*
D13*
X111320000Y-55465000D03*
X108780000Y-55465000D03*
X106240000Y-55465000D03*
X103700000Y-55465000D03*
X101160000Y-55465000D03*
X98620000Y-55465000D03*
X96080000Y-55465000D03*
X93540000Y-55465000D03*
X91000000Y-55465000D03*
X88460000Y-55465000D03*
X85920000Y-55465000D03*
X83380000Y-55465000D03*
X80840000Y-55465000D03*
X78300000Y-55465000D03*
%TD*%
D15*
%TO.C,BZ1*%
X135960000Y-42740000D03*
D16*
X143560000Y-42740000D03*
%TD*%
D17*
%TO.C,A1*%
X113910000Y-60730000D03*
D18*
X111370000Y-60730000D03*
X108830000Y-60730000D03*
X106290000Y-60730000D03*
X103750000Y-60730000D03*
X101210000Y-60730000D03*
X98670000Y-60730000D03*
X96130000Y-60730000D03*
X93590000Y-60730000D03*
X91050000Y-60730000D03*
X88510000Y-60730000D03*
X85970000Y-60730000D03*
X83430000Y-60730000D03*
X80890000Y-60730000D03*
X78350000Y-60730000D03*
X78350000Y-75970000D03*
X80890000Y-75970000D03*
X83430000Y-75970000D03*
X85970000Y-75970000D03*
X88510000Y-75970000D03*
X91050000Y-75970000D03*
X93590000Y-75970000D03*
X96130000Y-75970000D03*
X98670000Y-75970000D03*
X101210000Y-75970000D03*
X103750000Y-75970000D03*
X106290000Y-75970000D03*
X108830000Y-75970000D03*
X111370000Y-75970000D03*
X113910000Y-75970000D03*
%TD*%
D17*
%TO.C,U1*%
X104580000Y-49937500D03*
D19*
X107120000Y-49937500D03*
X109660000Y-49937500D03*
X112200000Y-49937500D03*
X114740000Y-49937500D03*
X114740000Y-34697500D03*
X112200000Y-34697500D03*
X109660000Y-34697500D03*
X107120000Y-34697500D03*
X104580000Y-34697500D03*
%TD*%
D10*
%TO.C,R10*%
X95520000Y-40640000D03*
D11*
X100600000Y-40640000D03*
%TD*%
D12*
%TO.C,J5*%
X99975000Y-87500000D03*
D13*
X102515000Y-87500000D03*
X105055000Y-87500000D03*
%TD*%
D10*
%TO.C,R2*%
X123460000Y-86650000D03*
D11*
X128540000Y-86650000D03*
%TD*%
D20*
%TO.C,D5*%
X88185000Y-37340000D03*
D21*
X90725000Y-37340000D03*
%TD*%
D10*
%TO.C,R6*%
X128540000Y-97000000D03*
D11*
X123460000Y-97000000D03*
%TD*%
D10*
%TO.C,R7*%
X120820000Y-33190000D03*
D11*
X125900000Y-33190000D03*
%TD*%
D10*
%TO.C,R11*%
X95520000Y-43740000D03*
D11*
X100600000Y-43740000D03*
%TD*%
D22*
%TO.C,H4*%
X121050000Y-82100000D03*
%TD*%
D10*
%TO.C,R14*%
X95520000Y-34740000D03*
D11*
X100600000Y-34740000D03*
%TD*%
D23*
%TO.C,Brd1*%
X132240000Y-55240000D03*
X134780000Y-55240000D03*
X137320000Y-55240000D03*
X139860000Y-55240000D03*
%TD*%
D24*
%TO.C,H1*%
X146360000Y-30940000D03*
%TD*%
D20*
%TO.C,D6*%
X88185000Y-42840000D03*
D21*
X90725000Y-42840000D03*
%TD*%
D12*
%TO.C,SW4*%
X87000000Y-115000000D03*
D25*
X93500000Y-115000000D03*
X87000000Y-119500000D03*
X93500000Y-119500000D03*
%TD*%
D10*
%TO.C,R3*%
X123460000Y-89800000D03*
D11*
X128540000Y-89800000D03*
%TD*%
D20*
%TO.C,D1*%
X75185000Y-37340000D03*
D21*
X77725000Y-37340000D03*
%TD*%
D20*
%TO.C,D4*%
X81685000Y-42840000D03*
D21*
X84225000Y-42840000D03*
%TD*%
D12*
%TO.C,SW6*%
X126550000Y-111250000D03*
D25*
X133050000Y-111250000D03*
X126550000Y-115750000D03*
X133050000Y-115750000D03*
%TD*%
D10*
%TO.C,R12*%
X95520000Y-47040000D03*
D11*
X100600000Y-47040000D03*
%TD*%
D12*
%TO.C,SW5*%
X97000000Y-107000000D03*
D25*
X103500000Y-107000000D03*
X97000000Y-111500000D03*
X103500000Y-111500000D03*
%TD*%
D12*
%TO.C,J2*%
X113860000Y-80865000D03*
D13*
X111320000Y-80865000D03*
X108780000Y-80865000D03*
X106240000Y-80865000D03*
X103700000Y-80865000D03*
X101160000Y-80865000D03*
X98620000Y-80865000D03*
X96080000Y-80865000D03*
X93540000Y-80865000D03*
X91000000Y-80865000D03*
X88460000Y-80865000D03*
X85920000Y-80865000D03*
X83380000Y-80865000D03*
X80840000Y-80865000D03*
X78300000Y-80865000D03*
%TD*%
D20*
%TO.C,D8*%
X136500000Y-93159000D03*
D21*
X136500000Y-91000000D03*
X136500000Y-88841000D03*
X136500000Y-86682000D03*
%TD*%
D22*
%TO.C,H3*%
X121050000Y-110100000D03*
%TD*%
D20*
%TO.C,D2*%
X75185000Y-42840000D03*
D21*
X77725000Y-42840000D03*
%TD*%
D26*
%TO.C,U2*%
X137460000Y-100670000D03*
D27*
X136190000Y-99400000D03*
X137460000Y-98130000D03*
%TD*%
D26*
%TO.C,Q1*%
X126200000Y-41470000D03*
D27*
X127470000Y-42740000D03*
X126200000Y-44010000D03*
%TD*%
D28*
%TO.C,SW1*%
X86960000Y-88542500D03*
X78760000Y-88542500D03*
D29*
X84860000Y-88542500D03*
D30*
X82860000Y-88542500D03*
X80860000Y-88542500D03*
%TD*%
D12*
%TO.C,SW2*%
X77000000Y-107000000D03*
D25*
X83500000Y-107000000D03*
X77000000Y-111500000D03*
X83500000Y-111500000D03*
%TD*%
D20*
%TO.C,D7*%
X88185000Y-48340000D03*
D21*
X90725000Y-48340000D03*
%TD*%
D10*
%TO.C,R8*%
X120820000Y-36340000D03*
D11*
X125900000Y-36340000D03*
%TD*%
D12*
%TO.C,SW7*%
X138750000Y-111250000D03*
D25*
X145250000Y-111250000D03*
X138750000Y-115750000D03*
X145250000Y-115750000D03*
%TD*%
D20*
%TO.C,D3*%
X75185000Y-48340000D03*
D21*
X77725000Y-48340000D03*
%TD*%
D12*
%TO.C,SW3*%
X87000000Y-99000000D03*
D25*
X93500000Y-99000000D03*
X87000000Y-103500000D03*
X93500000Y-103500000D03*
%TD*%
D10*
%TO.C,R9*%
X95520000Y-37740000D03*
D11*
X100600000Y-37740000D03*
%TD*%
D31*
%TO.C,R5*%
X124300000Y-102500000D03*
X127700000Y-102500000D03*
%TD*%
D10*
%TO.C,R15*%
X95520000Y-31840000D03*
D11*
X100600000Y-31840000D03*
%TD*%
D10*
%TO.C,R1*%
X121060000Y-45780000D03*
D11*
X121060000Y-40700000D03*
%TD*%
D22*
%TO.C,H2*%
X143250000Y-96100000D03*
%TD*%
D12*
%TO.C,J3*%
X107635000Y-29440000D03*
D13*
X110175000Y-29440000D03*
X112715000Y-29440000D03*
%TD*%
D17*
%TO.C,RN2*%
X74085000Y-28940000D03*
D18*
X76625000Y-28940000D03*
X79165000Y-28940000D03*
X81705000Y-28940000D03*
X84245000Y-28940000D03*
X86785000Y-28940000D03*
X89325000Y-28940000D03*
X91865000Y-28940000D03*
X94405000Y-28940000D03*
%TD*%
D32*
%TO.C,BT1*%
X121050000Y-82100000D03*
X143250000Y-96100000D03*
X121050000Y-110100000D03*
D33*
X138500000Y-121000000D03*
D34*
X125800000Y-121000000D03*
%TD*%
M02*
