%TF.GenerationSoftware,KiCad,Pcbnew,7.0.6*%
%TF.CreationDate,2023-07-29T04:39:19-03:00*%
%TF.ProjectId,OpenLabGeniosNano_V1,4f70656e-4c61-4624-9765-6e696f734e61,V1.0*%
%TF.SameCoordinates,Original*%
%TF.FileFunction,Drillmap*%
%TF.FilePolarity,Positive*%
%FSLAX45Y45*%
G04 Gerber Fmt 4.5, Leading zero omitted, Abs format (unit mm)*
G04 Created by KiCad (PCBNEW 7.0.6) date 2023-07-29 04:39:19*
%MOMM*%
%LPD*%
G01*
G04 APERTURE LIST*
%ADD10C,0.100000*%
%ADD11C,0.200000*%
%ADD12C,0.260000*%
%ADD13C,0.350000*%
G04 APERTURE END LIST*
D10*
X15086000Y-2934000D02*
G75*
G03*
X14786000Y-2634000I-300000J0D01*
G01*
X14786000Y-2634000D02*
X7386000Y-2634000D01*
X14786000Y-12634000D02*
G75*
G03*
X15086000Y-12334000I0J300000D01*
G01*
X7086000Y-2934000D02*
X7086000Y-12334000D01*
X7386000Y-2634000D02*
G75*
G03*
X7086000Y-2934000I0J-300000D01*
G01*
X15086000Y-12334000D02*
X15086000Y-2934000D01*
X7386000Y-12634000D02*
X14786000Y-12634000D01*
X7086000Y-12334000D02*
G75*
G03*
X7386000Y-12634000I300000J0D01*
G01*
D11*
D12*
X11975000Y-8080000D02*
X12235000Y-8340000D01*
X12235000Y-8080000D02*
X11975000Y-8340000D01*
X11975000Y-10880000D02*
X12235000Y-11140000D01*
X12235000Y-10880000D02*
X11975000Y-11140000D01*
X14195000Y-9480000D02*
X14455000Y-9740000D01*
X14455000Y-9480000D02*
X14195000Y-9740000D01*
D13*
X14811000Y-3094000D02*
G75*
G03*
X14811000Y-3094000I-175000J0D01*
G01*
D11*
X7341777Y-12950484D02*
X7341777Y-12750484D01*
X7341777Y-12750484D02*
X7389396Y-12750484D01*
X7389396Y-12750484D02*
X7417967Y-12760008D01*
X7417967Y-12760008D02*
X7437015Y-12779055D01*
X7437015Y-12779055D02*
X7446539Y-12798103D01*
X7446539Y-12798103D02*
X7456062Y-12836198D01*
X7456062Y-12836198D02*
X7456062Y-12864769D01*
X7456062Y-12864769D02*
X7446539Y-12902865D01*
X7446539Y-12902865D02*
X7437015Y-12921912D01*
X7437015Y-12921912D02*
X7417967Y-12940960D01*
X7417967Y-12940960D02*
X7389396Y-12950484D01*
X7389396Y-12950484D02*
X7341777Y-12950484D01*
X7541777Y-12950484D02*
X7541777Y-12817150D01*
X7541777Y-12855246D02*
X7551301Y-12836198D01*
X7551301Y-12836198D02*
X7560824Y-12826674D01*
X7560824Y-12826674D02*
X7579872Y-12817150D01*
X7579872Y-12817150D02*
X7598920Y-12817150D01*
X7665586Y-12950484D02*
X7665586Y-12817150D01*
X7665586Y-12750484D02*
X7656062Y-12760008D01*
X7656062Y-12760008D02*
X7665586Y-12769531D01*
X7665586Y-12769531D02*
X7675110Y-12760008D01*
X7675110Y-12760008D02*
X7665586Y-12750484D01*
X7665586Y-12750484D02*
X7665586Y-12769531D01*
X7789396Y-12950484D02*
X7770348Y-12940960D01*
X7770348Y-12940960D02*
X7760824Y-12921912D01*
X7760824Y-12921912D02*
X7760824Y-12750484D01*
X7894158Y-12950484D02*
X7875110Y-12940960D01*
X7875110Y-12940960D02*
X7865586Y-12921912D01*
X7865586Y-12921912D02*
X7865586Y-12750484D01*
X8122729Y-12950484D02*
X8122729Y-12750484D01*
X8122729Y-12750484D02*
X8189396Y-12893341D01*
X8189396Y-12893341D02*
X8256062Y-12750484D01*
X8256062Y-12750484D02*
X8256062Y-12950484D01*
X8437015Y-12950484D02*
X8437015Y-12845722D01*
X8437015Y-12845722D02*
X8427491Y-12826674D01*
X8427491Y-12826674D02*
X8408444Y-12817150D01*
X8408444Y-12817150D02*
X8370348Y-12817150D01*
X8370348Y-12817150D02*
X8351301Y-12826674D01*
X8437015Y-12940960D02*
X8417967Y-12950484D01*
X8417967Y-12950484D02*
X8370348Y-12950484D01*
X8370348Y-12950484D02*
X8351301Y-12940960D01*
X8351301Y-12940960D02*
X8341777Y-12921912D01*
X8341777Y-12921912D02*
X8341777Y-12902865D01*
X8341777Y-12902865D02*
X8351301Y-12883817D01*
X8351301Y-12883817D02*
X8370348Y-12874293D01*
X8370348Y-12874293D02*
X8417967Y-12874293D01*
X8417967Y-12874293D02*
X8437015Y-12864769D01*
X8532253Y-12817150D02*
X8532253Y-13017150D01*
X8532253Y-12826674D02*
X8551301Y-12817150D01*
X8551301Y-12817150D02*
X8589396Y-12817150D01*
X8589396Y-12817150D02*
X8608444Y-12826674D01*
X8608444Y-12826674D02*
X8617967Y-12836198D01*
X8617967Y-12836198D02*
X8627491Y-12855246D01*
X8627491Y-12855246D02*
X8627491Y-12912388D01*
X8627491Y-12912388D02*
X8617967Y-12931436D01*
X8617967Y-12931436D02*
X8608444Y-12940960D01*
X8608444Y-12940960D02*
X8589396Y-12950484D01*
X8589396Y-12950484D02*
X8551301Y-12950484D01*
X8551301Y-12950484D02*
X8532253Y-12940960D01*
X8713205Y-12931436D02*
X8722729Y-12940960D01*
X8722729Y-12940960D02*
X8713205Y-12950484D01*
X8713205Y-12950484D02*
X8703682Y-12940960D01*
X8703682Y-12940960D02*
X8713205Y-12931436D01*
X8713205Y-12931436D02*
X8713205Y-12950484D01*
X8713205Y-12826674D02*
X8722729Y-12836198D01*
X8722729Y-12836198D02*
X8713205Y-12845722D01*
X8713205Y-12845722D02*
X8703682Y-12836198D01*
X8703682Y-12836198D02*
X8713205Y-12826674D01*
X8713205Y-12826674D02*
X8713205Y-12845722D01*
X6881000Y-13179000D02*
X7081000Y-13379000D01*
X7081000Y-13179000D02*
X6881000Y-13379000D01*
X7332253Y-13189531D02*
X7341777Y-13180008D01*
X7341777Y-13180008D02*
X7360824Y-13170484D01*
X7360824Y-13170484D02*
X7408443Y-13170484D01*
X7408443Y-13170484D02*
X7427491Y-13180008D01*
X7427491Y-13180008D02*
X7437015Y-13189531D01*
X7437015Y-13189531D02*
X7446539Y-13208579D01*
X7446539Y-13208579D02*
X7446539Y-13227627D01*
X7446539Y-13227627D02*
X7437015Y-13256198D01*
X7437015Y-13256198D02*
X7322729Y-13370484D01*
X7322729Y-13370484D02*
X7446539Y-13370484D01*
X7532253Y-13351436D02*
X7541777Y-13360960D01*
X7541777Y-13360960D02*
X7532253Y-13370484D01*
X7532253Y-13370484D02*
X7522729Y-13360960D01*
X7522729Y-13360960D02*
X7532253Y-13351436D01*
X7532253Y-13351436D02*
X7532253Y-13370484D01*
X7713205Y-13170484D02*
X7675110Y-13170484D01*
X7675110Y-13170484D02*
X7656062Y-13180008D01*
X7656062Y-13180008D02*
X7646539Y-13189531D01*
X7646539Y-13189531D02*
X7627491Y-13218103D01*
X7627491Y-13218103D02*
X7617967Y-13256198D01*
X7617967Y-13256198D02*
X7617967Y-13332388D01*
X7617967Y-13332388D02*
X7627491Y-13351436D01*
X7627491Y-13351436D02*
X7637015Y-13360960D01*
X7637015Y-13360960D02*
X7656062Y-13370484D01*
X7656062Y-13370484D02*
X7694158Y-13370484D01*
X7694158Y-13370484D02*
X7713205Y-13360960D01*
X7713205Y-13360960D02*
X7722729Y-13351436D01*
X7722729Y-13351436D02*
X7732253Y-13332388D01*
X7732253Y-13332388D02*
X7732253Y-13284769D01*
X7732253Y-13284769D02*
X7722729Y-13265722D01*
X7722729Y-13265722D02*
X7713205Y-13256198D01*
X7713205Y-13256198D02*
X7694158Y-13246674D01*
X7694158Y-13246674D02*
X7656062Y-13246674D01*
X7656062Y-13246674D02*
X7637015Y-13256198D01*
X7637015Y-13256198D02*
X7627491Y-13265722D01*
X7627491Y-13265722D02*
X7617967Y-13284769D01*
X7856062Y-13170484D02*
X7875110Y-13170484D01*
X7875110Y-13170484D02*
X7894158Y-13180008D01*
X7894158Y-13180008D02*
X7903682Y-13189531D01*
X7903682Y-13189531D02*
X7913205Y-13208579D01*
X7913205Y-13208579D02*
X7922729Y-13246674D01*
X7922729Y-13246674D02*
X7922729Y-13294293D01*
X7922729Y-13294293D02*
X7913205Y-13332388D01*
X7913205Y-13332388D02*
X7903682Y-13351436D01*
X7903682Y-13351436D02*
X7894158Y-13360960D01*
X7894158Y-13360960D02*
X7875110Y-13370484D01*
X7875110Y-13370484D02*
X7856062Y-13370484D01*
X7856062Y-13370484D02*
X7837015Y-13360960D01*
X7837015Y-13360960D02*
X7827491Y-13351436D01*
X7827491Y-13351436D02*
X7817967Y-13332388D01*
X7817967Y-13332388D02*
X7808443Y-13294293D01*
X7808443Y-13294293D02*
X7808443Y-13246674D01*
X7808443Y-13246674D02*
X7817967Y-13208579D01*
X7817967Y-13208579D02*
X7827491Y-13189531D01*
X7827491Y-13189531D02*
X7837015Y-13180008D01*
X7837015Y-13180008D02*
X7856062Y-13170484D01*
X8046539Y-13170484D02*
X8065586Y-13170484D01*
X8065586Y-13170484D02*
X8084634Y-13180008D01*
X8084634Y-13180008D02*
X8094158Y-13189531D01*
X8094158Y-13189531D02*
X8103682Y-13208579D01*
X8103682Y-13208579D02*
X8113205Y-13246674D01*
X8113205Y-13246674D02*
X8113205Y-13294293D01*
X8113205Y-13294293D02*
X8103682Y-13332388D01*
X8103682Y-13332388D02*
X8094158Y-13351436D01*
X8094158Y-13351436D02*
X8084634Y-13360960D01*
X8084634Y-13360960D02*
X8065586Y-13370484D01*
X8065586Y-13370484D02*
X8046539Y-13370484D01*
X8046539Y-13370484D02*
X8027491Y-13360960D01*
X8027491Y-13360960D02*
X8017967Y-13351436D01*
X8017967Y-13351436D02*
X8008443Y-13332388D01*
X8008443Y-13332388D02*
X7998920Y-13294293D01*
X7998920Y-13294293D02*
X7998920Y-13246674D01*
X7998920Y-13246674D02*
X8008443Y-13208579D01*
X8008443Y-13208579D02*
X8017967Y-13189531D01*
X8017967Y-13189531D02*
X8027491Y-13180008D01*
X8027491Y-13180008D02*
X8046539Y-13170484D01*
X8198920Y-13370484D02*
X8198920Y-13237150D01*
X8198920Y-13256198D02*
X8208443Y-13246674D01*
X8208443Y-13246674D02*
X8227491Y-13237150D01*
X8227491Y-13237150D02*
X8256063Y-13237150D01*
X8256063Y-13237150D02*
X8275110Y-13246674D01*
X8275110Y-13246674D02*
X8284634Y-13265722D01*
X8284634Y-13265722D02*
X8284634Y-13370484D01*
X8284634Y-13265722D02*
X8294158Y-13246674D01*
X8294158Y-13246674D02*
X8313205Y-13237150D01*
X8313205Y-13237150D02*
X8341777Y-13237150D01*
X8341777Y-13237150D02*
X8360824Y-13246674D01*
X8360824Y-13246674D02*
X8370348Y-13265722D01*
X8370348Y-13265722D02*
X8370348Y-13370484D01*
X8465586Y-13370484D02*
X8465586Y-13237150D01*
X8465586Y-13256198D02*
X8475110Y-13246674D01*
X8475110Y-13246674D02*
X8494158Y-13237150D01*
X8494158Y-13237150D02*
X8522729Y-13237150D01*
X8522729Y-13237150D02*
X8541777Y-13246674D01*
X8541777Y-13246674D02*
X8551301Y-13265722D01*
X8551301Y-13265722D02*
X8551301Y-13370484D01*
X8551301Y-13265722D02*
X8560825Y-13246674D01*
X8560825Y-13246674D02*
X8579872Y-13237150D01*
X8579872Y-13237150D02*
X8608444Y-13237150D01*
X8608444Y-13237150D02*
X8627491Y-13246674D01*
X8627491Y-13246674D02*
X8637015Y-13265722D01*
X8637015Y-13265722D02*
X8637015Y-13370484D01*
X9027491Y-13160960D02*
X8856063Y-13418103D01*
X9284634Y-13170484D02*
X9303682Y-13170484D01*
X9303682Y-13170484D02*
X9322729Y-13180008D01*
X9322729Y-13180008D02*
X9332253Y-13189531D01*
X9332253Y-13189531D02*
X9341777Y-13208579D01*
X9341777Y-13208579D02*
X9351301Y-13246674D01*
X9351301Y-13246674D02*
X9351301Y-13294293D01*
X9351301Y-13294293D02*
X9341777Y-13332388D01*
X9341777Y-13332388D02*
X9332253Y-13351436D01*
X9332253Y-13351436D02*
X9322729Y-13360960D01*
X9322729Y-13360960D02*
X9303682Y-13370484D01*
X9303682Y-13370484D02*
X9284634Y-13370484D01*
X9284634Y-13370484D02*
X9265587Y-13360960D01*
X9265587Y-13360960D02*
X9256063Y-13351436D01*
X9256063Y-13351436D02*
X9246539Y-13332388D01*
X9246539Y-13332388D02*
X9237015Y-13294293D01*
X9237015Y-13294293D02*
X9237015Y-13246674D01*
X9237015Y-13246674D02*
X9246539Y-13208579D01*
X9246539Y-13208579D02*
X9256063Y-13189531D01*
X9256063Y-13189531D02*
X9265587Y-13180008D01*
X9265587Y-13180008D02*
X9284634Y-13170484D01*
X9437015Y-13351436D02*
X9446539Y-13360960D01*
X9446539Y-13360960D02*
X9437015Y-13370484D01*
X9437015Y-13370484D02*
X9427491Y-13360960D01*
X9427491Y-13360960D02*
X9437015Y-13351436D01*
X9437015Y-13351436D02*
X9437015Y-13370484D01*
X9637015Y-13370484D02*
X9522729Y-13370484D01*
X9579872Y-13370484D02*
X9579872Y-13170484D01*
X9579872Y-13170484D02*
X9560825Y-13199055D01*
X9560825Y-13199055D02*
X9541777Y-13218103D01*
X9541777Y-13218103D02*
X9522729Y-13227627D01*
X9760825Y-13170484D02*
X9779872Y-13170484D01*
X9779872Y-13170484D02*
X9798920Y-13180008D01*
X9798920Y-13180008D02*
X9808444Y-13189531D01*
X9808444Y-13189531D02*
X9817968Y-13208579D01*
X9817968Y-13208579D02*
X9827491Y-13246674D01*
X9827491Y-13246674D02*
X9827491Y-13294293D01*
X9827491Y-13294293D02*
X9817968Y-13332388D01*
X9817968Y-13332388D02*
X9808444Y-13351436D01*
X9808444Y-13351436D02*
X9798920Y-13360960D01*
X9798920Y-13360960D02*
X9779872Y-13370484D01*
X9779872Y-13370484D02*
X9760825Y-13370484D01*
X9760825Y-13370484D02*
X9741777Y-13360960D01*
X9741777Y-13360960D02*
X9732253Y-13351436D01*
X9732253Y-13351436D02*
X9722729Y-13332388D01*
X9722729Y-13332388D02*
X9713206Y-13294293D01*
X9713206Y-13294293D02*
X9713206Y-13246674D01*
X9713206Y-13246674D02*
X9722729Y-13208579D01*
X9722729Y-13208579D02*
X9732253Y-13189531D01*
X9732253Y-13189531D02*
X9741777Y-13180008D01*
X9741777Y-13180008D02*
X9760825Y-13170484D01*
X9903682Y-13189531D02*
X9913206Y-13180008D01*
X9913206Y-13180008D02*
X9932253Y-13170484D01*
X9932253Y-13170484D02*
X9979872Y-13170484D01*
X9979872Y-13170484D02*
X9998920Y-13180008D01*
X9998920Y-13180008D02*
X10008444Y-13189531D01*
X10008444Y-13189531D02*
X10017968Y-13208579D01*
X10017968Y-13208579D02*
X10017968Y-13227627D01*
X10017968Y-13227627D02*
X10008444Y-13256198D01*
X10008444Y-13256198D02*
X9894158Y-13370484D01*
X9894158Y-13370484D02*
X10017968Y-13370484D01*
X10189396Y-13237150D02*
X10189396Y-13370484D01*
X10141777Y-13160960D02*
X10094158Y-13303817D01*
X10094158Y-13303817D02*
X10217968Y-13303817D01*
X10284634Y-13170484D02*
X10284634Y-13208579D01*
X10360825Y-13170484D02*
X10360825Y-13208579D01*
X10656063Y-13446674D02*
X10646539Y-13437150D01*
X10646539Y-13437150D02*
X10627491Y-13408579D01*
X10627491Y-13408579D02*
X10617968Y-13389531D01*
X10617968Y-13389531D02*
X10608444Y-13360960D01*
X10608444Y-13360960D02*
X10598920Y-13313341D01*
X10598920Y-13313341D02*
X10598920Y-13275246D01*
X10598920Y-13275246D02*
X10608444Y-13227627D01*
X10608444Y-13227627D02*
X10617968Y-13199055D01*
X10617968Y-13199055D02*
X10627491Y-13180008D01*
X10627491Y-13180008D02*
X10646539Y-13151436D01*
X10646539Y-13151436D02*
X10656063Y-13141912D01*
X10713206Y-13170484D02*
X10837015Y-13170484D01*
X10837015Y-13170484D02*
X10770349Y-13246674D01*
X10770349Y-13246674D02*
X10798920Y-13246674D01*
X10798920Y-13246674D02*
X10817968Y-13256198D01*
X10817968Y-13256198D02*
X10827491Y-13265722D01*
X10827491Y-13265722D02*
X10837015Y-13284769D01*
X10837015Y-13284769D02*
X10837015Y-13332388D01*
X10837015Y-13332388D02*
X10827491Y-13351436D01*
X10827491Y-13351436D02*
X10817968Y-13360960D01*
X10817968Y-13360960D02*
X10798920Y-13370484D01*
X10798920Y-13370484D02*
X10741777Y-13370484D01*
X10741777Y-13370484D02*
X10722730Y-13360960D01*
X10722730Y-13360960D02*
X10713206Y-13351436D01*
X11075111Y-13370484D02*
X11075111Y-13170484D01*
X11160825Y-13370484D02*
X11160825Y-13265722D01*
X11160825Y-13265722D02*
X11151301Y-13246674D01*
X11151301Y-13246674D02*
X11132253Y-13237150D01*
X11132253Y-13237150D02*
X11103682Y-13237150D01*
X11103682Y-13237150D02*
X11084634Y-13246674D01*
X11084634Y-13246674D02*
X11075111Y-13256198D01*
X11284634Y-13370484D02*
X11265587Y-13360960D01*
X11265587Y-13360960D02*
X11256063Y-13351436D01*
X11256063Y-13351436D02*
X11246539Y-13332388D01*
X11246539Y-13332388D02*
X11246539Y-13275246D01*
X11246539Y-13275246D02*
X11256063Y-13256198D01*
X11256063Y-13256198D02*
X11265587Y-13246674D01*
X11265587Y-13246674D02*
X11284634Y-13237150D01*
X11284634Y-13237150D02*
X11313206Y-13237150D01*
X11313206Y-13237150D02*
X11332253Y-13246674D01*
X11332253Y-13246674D02*
X11341777Y-13256198D01*
X11341777Y-13256198D02*
X11351301Y-13275246D01*
X11351301Y-13275246D02*
X11351301Y-13332388D01*
X11351301Y-13332388D02*
X11341777Y-13351436D01*
X11341777Y-13351436D02*
X11332253Y-13360960D01*
X11332253Y-13360960D02*
X11313206Y-13370484D01*
X11313206Y-13370484D02*
X11284634Y-13370484D01*
X11465587Y-13370484D02*
X11446539Y-13360960D01*
X11446539Y-13360960D02*
X11437015Y-13341912D01*
X11437015Y-13341912D02*
X11437015Y-13170484D01*
X11617968Y-13360960D02*
X11598920Y-13370484D01*
X11598920Y-13370484D02*
X11560825Y-13370484D01*
X11560825Y-13370484D02*
X11541777Y-13360960D01*
X11541777Y-13360960D02*
X11532253Y-13341912D01*
X11532253Y-13341912D02*
X11532253Y-13265722D01*
X11532253Y-13265722D02*
X11541777Y-13246674D01*
X11541777Y-13246674D02*
X11560825Y-13237150D01*
X11560825Y-13237150D02*
X11598920Y-13237150D01*
X11598920Y-13237150D02*
X11617968Y-13246674D01*
X11617968Y-13246674D02*
X11627491Y-13265722D01*
X11627491Y-13265722D02*
X11627491Y-13284769D01*
X11627491Y-13284769D02*
X11532253Y-13303817D01*
X11703682Y-13360960D02*
X11722730Y-13370484D01*
X11722730Y-13370484D02*
X11760825Y-13370484D01*
X11760825Y-13370484D02*
X11779872Y-13360960D01*
X11779872Y-13360960D02*
X11789396Y-13341912D01*
X11789396Y-13341912D02*
X11789396Y-13332388D01*
X11789396Y-13332388D02*
X11779872Y-13313341D01*
X11779872Y-13313341D02*
X11760825Y-13303817D01*
X11760825Y-13303817D02*
X11732253Y-13303817D01*
X11732253Y-13303817D02*
X11713206Y-13294293D01*
X11713206Y-13294293D02*
X11703682Y-13275246D01*
X11703682Y-13275246D02*
X11703682Y-13265722D01*
X11703682Y-13265722D02*
X11713206Y-13246674D01*
X11713206Y-13246674D02*
X11732253Y-13237150D01*
X11732253Y-13237150D02*
X11760825Y-13237150D01*
X11760825Y-13237150D02*
X11779872Y-13246674D01*
X11856063Y-13446674D02*
X11865587Y-13437150D01*
X11865587Y-13437150D02*
X11884634Y-13408579D01*
X11884634Y-13408579D02*
X11894158Y-13389531D01*
X11894158Y-13389531D02*
X11903682Y-13360960D01*
X11903682Y-13360960D02*
X11913206Y-13313341D01*
X11913206Y-13313341D02*
X11913206Y-13275246D01*
X11913206Y-13275246D02*
X11903682Y-13227627D01*
X11903682Y-13227627D02*
X11894158Y-13199055D01*
X11894158Y-13199055D02*
X11884634Y-13180008D01*
X11884634Y-13180008D02*
X11865587Y-13151436D01*
X11865587Y-13151436D02*
X11856063Y-13141912D01*
X12217968Y-13446674D02*
X12208444Y-13437150D01*
X12208444Y-13437150D02*
X12189396Y-13408579D01*
X12189396Y-13408579D02*
X12179872Y-13389531D01*
X12179872Y-13389531D02*
X12170349Y-13360960D01*
X12170349Y-13360960D02*
X12160825Y-13313341D01*
X12160825Y-13313341D02*
X12160825Y-13275246D01*
X12160825Y-13275246D02*
X12170349Y-13227627D01*
X12170349Y-13227627D02*
X12179872Y-13199055D01*
X12179872Y-13199055D02*
X12189396Y-13180008D01*
X12189396Y-13180008D02*
X12208444Y-13151436D01*
X12208444Y-13151436D02*
X12217968Y-13141912D01*
X12294158Y-13237150D02*
X12294158Y-13370484D01*
X12294158Y-13256198D02*
X12303682Y-13246674D01*
X12303682Y-13246674D02*
X12322730Y-13237150D01*
X12322730Y-13237150D02*
X12351301Y-13237150D01*
X12351301Y-13237150D02*
X12370349Y-13246674D01*
X12370349Y-13246674D02*
X12379872Y-13265722D01*
X12379872Y-13265722D02*
X12379872Y-13370484D01*
X12503682Y-13370484D02*
X12484634Y-13360960D01*
X12484634Y-13360960D02*
X12475111Y-13351436D01*
X12475111Y-13351436D02*
X12465587Y-13332388D01*
X12465587Y-13332388D02*
X12465587Y-13275246D01*
X12465587Y-13275246D02*
X12475111Y-13256198D01*
X12475111Y-13256198D02*
X12484634Y-13246674D01*
X12484634Y-13246674D02*
X12503682Y-13237150D01*
X12503682Y-13237150D02*
X12532253Y-13237150D01*
X12532253Y-13237150D02*
X12551301Y-13246674D01*
X12551301Y-13246674D02*
X12560825Y-13256198D01*
X12560825Y-13256198D02*
X12570349Y-13275246D01*
X12570349Y-13275246D02*
X12570349Y-13332388D01*
X12570349Y-13332388D02*
X12560825Y-13351436D01*
X12560825Y-13351436D02*
X12551301Y-13360960D01*
X12551301Y-13360960D02*
X12532253Y-13370484D01*
X12532253Y-13370484D02*
X12503682Y-13370484D01*
X12627492Y-13237150D02*
X12703682Y-13237150D01*
X12656063Y-13170484D02*
X12656063Y-13341912D01*
X12656063Y-13341912D02*
X12665587Y-13360960D01*
X12665587Y-13360960D02*
X12684634Y-13370484D01*
X12684634Y-13370484D02*
X12703682Y-13370484D01*
X12922730Y-13237150D02*
X12922730Y-13437150D01*
X12922730Y-13246674D02*
X12941777Y-13237150D01*
X12941777Y-13237150D02*
X12979873Y-13237150D01*
X12979873Y-13237150D02*
X12998920Y-13246674D01*
X12998920Y-13246674D02*
X13008444Y-13256198D01*
X13008444Y-13256198D02*
X13017968Y-13275246D01*
X13017968Y-13275246D02*
X13017968Y-13332388D01*
X13017968Y-13332388D02*
X13008444Y-13351436D01*
X13008444Y-13351436D02*
X12998920Y-13360960D01*
X12998920Y-13360960D02*
X12979873Y-13370484D01*
X12979873Y-13370484D02*
X12941777Y-13370484D01*
X12941777Y-13370484D02*
X12922730Y-13360960D01*
X13132253Y-13370484D02*
X13113206Y-13360960D01*
X13113206Y-13360960D02*
X13103682Y-13341912D01*
X13103682Y-13341912D02*
X13103682Y-13170484D01*
X13294158Y-13370484D02*
X13294158Y-13265722D01*
X13294158Y-13265722D02*
X13284634Y-13246674D01*
X13284634Y-13246674D02*
X13265587Y-13237150D01*
X13265587Y-13237150D02*
X13227492Y-13237150D01*
X13227492Y-13237150D02*
X13208444Y-13246674D01*
X13294158Y-13360960D02*
X13275111Y-13370484D01*
X13275111Y-13370484D02*
X13227492Y-13370484D01*
X13227492Y-13370484D02*
X13208444Y-13360960D01*
X13208444Y-13360960D02*
X13198920Y-13341912D01*
X13198920Y-13341912D02*
X13198920Y-13322865D01*
X13198920Y-13322865D02*
X13208444Y-13303817D01*
X13208444Y-13303817D02*
X13227492Y-13294293D01*
X13227492Y-13294293D02*
X13275111Y-13294293D01*
X13275111Y-13294293D02*
X13294158Y-13284769D01*
X13360825Y-13237150D02*
X13437015Y-13237150D01*
X13389396Y-13170484D02*
X13389396Y-13341912D01*
X13389396Y-13341912D02*
X13398920Y-13360960D01*
X13398920Y-13360960D02*
X13417968Y-13370484D01*
X13417968Y-13370484D02*
X13437015Y-13370484D01*
X13579873Y-13360960D02*
X13560825Y-13370484D01*
X13560825Y-13370484D02*
X13522730Y-13370484D01*
X13522730Y-13370484D02*
X13503682Y-13360960D01*
X13503682Y-13360960D02*
X13494158Y-13341912D01*
X13494158Y-13341912D02*
X13494158Y-13265722D01*
X13494158Y-13265722D02*
X13503682Y-13246674D01*
X13503682Y-13246674D02*
X13522730Y-13237150D01*
X13522730Y-13237150D02*
X13560825Y-13237150D01*
X13560825Y-13237150D02*
X13579873Y-13246674D01*
X13579873Y-13246674D02*
X13589396Y-13265722D01*
X13589396Y-13265722D02*
X13589396Y-13284769D01*
X13589396Y-13284769D02*
X13494158Y-13303817D01*
X13760825Y-13370484D02*
X13760825Y-13170484D01*
X13760825Y-13360960D02*
X13741777Y-13370484D01*
X13741777Y-13370484D02*
X13703682Y-13370484D01*
X13703682Y-13370484D02*
X13684634Y-13360960D01*
X13684634Y-13360960D02*
X13675111Y-13351436D01*
X13675111Y-13351436D02*
X13665587Y-13332388D01*
X13665587Y-13332388D02*
X13665587Y-13275246D01*
X13665587Y-13275246D02*
X13675111Y-13256198D01*
X13675111Y-13256198D02*
X13684634Y-13246674D01*
X13684634Y-13246674D02*
X13703682Y-13237150D01*
X13703682Y-13237150D02*
X13741777Y-13237150D01*
X13741777Y-13237150D02*
X13760825Y-13246674D01*
X13837015Y-13446674D02*
X13846539Y-13437150D01*
X13846539Y-13437150D02*
X13865587Y-13408579D01*
X13865587Y-13408579D02*
X13875111Y-13389531D01*
X13875111Y-13389531D02*
X13884634Y-13360960D01*
X13884634Y-13360960D02*
X13894158Y-13313341D01*
X13894158Y-13313341D02*
X13894158Y-13275246D01*
X13894158Y-13275246D02*
X13884634Y-13227627D01*
X13884634Y-13227627D02*
X13875111Y-13199055D01*
X13875111Y-13199055D02*
X13865587Y-13180008D01*
X13865587Y-13180008D02*
X13846539Y-13151436D01*
X13846539Y-13151436D02*
X13837015Y-13141912D01*
X7081000Y-13599000D02*
G75*
G03*
X7081000Y-13599000I-100000J0D01*
G01*
X7322729Y-13490484D02*
X7446539Y-13490484D01*
X7446539Y-13490484D02*
X7379872Y-13566674D01*
X7379872Y-13566674D02*
X7408443Y-13566674D01*
X7408443Y-13566674D02*
X7427491Y-13576198D01*
X7427491Y-13576198D02*
X7437015Y-13585722D01*
X7437015Y-13585722D02*
X7446539Y-13604769D01*
X7446539Y-13604769D02*
X7446539Y-13652388D01*
X7446539Y-13652388D02*
X7437015Y-13671436D01*
X7437015Y-13671436D02*
X7427491Y-13680960D01*
X7427491Y-13680960D02*
X7408443Y-13690484D01*
X7408443Y-13690484D02*
X7351301Y-13690484D01*
X7351301Y-13690484D02*
X7332253Y-13680960D01*
X7332253Y-13680960D02*
X7322729Y-13671436D01*
X7532253Y-13671436D02*
X7541777Y-13680960D01*
X7541777Y-13680960D02*
X7532253Y-13690484D01*
X7532253Y-13690484D02*
X7522729Y-13680960D01*
X7522729Y-13680960D02*
X7532253Y-13671436D01*
X7532253Y-13671436D02*
X7532253Y-13690484D01*
X7722729Y-13490484D02*
X7627491Y-13490484D01*
X7627491Y-13490484D02*
X7617967Y-13585722D01*
X7617967Y-13585722D02*
X7627491Y-13576198D01*
X7627491Y-13576198D02*
X7646539Y-13566674D01*
X7646539Y-13566674D02*
X7694158Y-13566674D01*
X7694158Y-13566674D02*
X7713205Y-13576198D01*
X7713205Y-13576198D02*
X7722729Y-13585722D01*
X7722729Y-13585722D02*
X7732253Y-13604769D01*
X7732253Y-13604769D02*
X7732253Y-13652388D01*
X7732253Y-13652388D02*
X7722729Y-13671436D01*
X7722729Y-13671436D02*
X7713205Y-13680960D01*
X7713205Y-13680960D02*
X7694158Y-13690484D01*
X7694158Y-13690484D02*
X7646539Y-13690484D01*
X7646539Y-13690484D02*
X7627491Y-13680960D01*
X7627491Y-13680960D02*
X7617967Y-13671436D01*
X7856062Y-13490484D02*
X7875110Y-13490484D01*
X7875110Y-13490484D02*
X7894158Y-13500008D01*
X7894158Y-13500008D02*
X7903682Y-13509531D01*
X7903682Y-13509531D02*
X7913205Y-13528579D01*
X7913205Y-13528579D02*
X7922729Y-13566674D01*
X7922729Y-13566674D02*
X7922729Y-13614293D01*
X7922729Y-13614293D02*
X7913205Y-13652388D01*
X7913205Y-13652388D02*
X7903682Y-13671436D01*
X7903682Y-13671436D02*
X7894158Y-13680960D01*
X7894158Y-13680960D02*
X7875110Y-13690484D01*
X7875110Y-13690484D02*
X7856062Y-13690484D01*
X7856062Y-13690484D02*
X7837015Y-13680960D01*
X7837015Y-13680960D02*
X7827491Y-13671436D01*
X7827491Y-13671436D02*
X7817967Y-13652388D01*
X7817967Y-13652388D02*
X7808443Y-13614293D01*
X7808443Y-13614293D02*
X7808443Y-13566674D01*
X7808443Y-13566674D02*
X7817967Y-13528579D01*
X7817967Y-13528579D02*
X7827491Y-13509531D01*
X7827491Y-13509531D02*
X7837015Y-13500008D01*
X7837015Y-13500008D02*
X7856062Y-13490484D01*
X8046539Y-13490484D02*
X8065586Y-13490484D01*
X8065586Y-13490484D02*
X8084634Y-13500008D01*
X8084634Y-13500008D02*
X8094158Y-13509531D01*
X8094158Y-13509531D02*
X8103682Y-13528579D01*
X8103682Y-13528579D02*
X8113205Y-13566674D01*
X8113205Y-13566674D02*
X8113205Y-13614293D01*
X8113205Y-13614293D02*
X8103682Y-13652388D01*
X8103682Y-13652388D02*
X8094158Y-13671436D01*
X8094158Y-13671436D02*
X8084634Y-13680960D01*
X8084634Y-13680960D02*
X8065586Y-13690484D01*
X8065586Y-13690484D02*
X8046539Y-13690484D01*
X8046539Y-13690484D02*
X8027491Y-13680960D01*
X8027491Y-13680960D02*
X8017967Y-13671436D01*
X8017967Y-13671436D02*
X8008443Y-13652388D01*
X8008443Y-13652388D02*
X7998920Y-13614293D01*
X7998920Y-13614293D02*
X7998920Y-13566674D01*
X7998920Y-13566674D02*
X8008443Y-13528579D01*
X8008443Y-13528579D02*
X8017967Y-13509531D01*
X8017967Y-13509531D02*
X8027491Y-13500008D01*
X8027491Y-13500008D02*
X8046539Y-13490484D01*
X8198920Y-13690484D02*
X8198920Y-13557150D01*
X8198920Y-13576198D02*
X8208443Y-13566674D01*
X8208443Y-13566674D02*
X8227491Y-13557150D01*
X8227491Y-13557150D02*
X8256063Y-13557150D01*
X8256063Y-13557150D02*
X8275110Y-13566674D01*
X8275110Y-13566674D02*
X8284634Y-13585722D01*
X8284634Y-13585722D02*
X8284634Y-13690484D01*
X8284634Y-13585722D02*
X8294158Y-13566674D01*
X8294158Y-13566674D02*
X8313205Y-13557150D01*
X8313205Y-13557150D02*
X8341777Y-13557150D01*
X8341777Y-13557150D02*
X8360824Y-13566674D01*
X8360824Y-13566674D02*
X8370348Y-13585722D01*
X8370348Y-13585722D02*
X8370348Y-13690484D01*
X8465586Y-13690484D02*
X8465586Y-13557150D01*
X8465586Y-13576198D02*
X8475110Y-13566674D01*
X8475110Y-13566674D02*
X8494158Y-13557150D01*
X8494158Y-13557150D02*
X8522729Y-13557150D01*
X8522729Y-13557150D02*
X8541777Y-13566674D01*
X8541777Y-13566674D02*
X8551301Y-13585722D01*
X8551301Y-13585722D02*
X8551301Y-13690484D01*
X8551301Y-13585722D02*
X8560825Y-13566674D01*
X8560825Y-13566674D02*
X8579872Y-13557150D01*
X8579872Y-13557150D02*
X8608444Y-13557150D01*
X8608444Y-13557150D02*
X8627491Y-13566674D01*
X8627491Y-13566674D02*
X8637015Y-13585722D01*
X8637015Y-13585722D02*
X8637015Y-13690484D01*
X9027491Y-13480960D02*
X8856063Y-13738103D01*
X9284634Y-13490484D02*
X9303682Y-13490484D01*
X9303682Y-13490484D02*
X9322729Y-13500008D01*
X9322729Y-13500008D02*
X9332253Y-13509531D01*
X9332253Y-13509531D02*
X9341777Y-13528579D01*
X9341777Y-13528579D02*
X9351301Y-13566674D01*
X9351301Y-13566674D02*
X9351301Y-13614293D01*
X9351301Y-13614293D02*
X9341777Y-13652388D01*
X9341777Y-13652388D02*
X9332253Y-13671436D01*
X9332253Y-13671436D02*
X9322729Y-13680960D01*
X9322729Y-13680960D02*
X9303682Y-13690484D01*
X9303682Y-13690484D02*
X9284634Y-13690484D01*
X9284634Y-13690484D02*
X9265587Y-13680960D01*
X9265587Y-13680960D02*
X9256063Y-13671436D01*
X9256063Y-13671436D02*
X9246539Y-13652388D01*
X9246539Y-13652388D02*
X9237015Y-13614293D01*
X9237015Y-13614293D02*
X9237015Y-13566674D01*
X9237015Y-13566674D02*
X9246539Y-13528579D01*
X9246539Y-13528579D02*
X9256063Y-13509531D01*
X9256063Y-13509531D02*
X9265587Y-13500008D01*
X9265587Y-13500008D02*
X9284634Y-13490484D01*
X9437015Y-13671436D02*
X9446539Y-13680960D01*
X9446539Y-13680960D02*
X9437015Y-13690484D01*
X9437015Y-13690484D02*
X9427491Y-13680960D01*
X9427491Y-13680960D02*
X9437015Y-13671436D01*
X9437015Y-13671436D02*
X9437015Y-13690484D01*
X9637015Y-13690484D02*
X9522729Y-13690484D01*
X9579872Y-13690484D02*
X9579872Y-13490484D01*
X9579872Y-13490484D02*
X9560825Y-13519055D01*
X9560825Y-13519055D02*
X9541777Y-13538103D01*
X9541777Y-13538103D02*
X9522729Y-13547627D01*
X9703682Y-13490484D02*
X9827491Y-13490484D01*
X9827491Y-13490484D02*
X9760825Y-13566674D01*
X9760825Y-13566674D02*
X9789396Y-13566674D01*
X9789396Y-13566674D02*
X9808444Y-13576198D01*
X9808444Y-13576198D02*
X9817968Y-13585722D01*
X9817968Y-13585722D02*
X9827491Y-13604769D01*
X9827491Y-13604769D02*
X9827491Y-13652388D01*
X9827491Y-13652388D02*
X9817968Y-13671436D01*
X9817968Y-13671436D02*
X9808444Y-13680960D01*
X9808444Y-13680960D02*
X9789396Y-13690484D01*
X9789396Y-13690484D02*
X9732253Y-13690484D01*
X9732253Y-13690484D02*
X9713206Y-13680960D01*
X9713206Y-13680960D02*
X9703682Y-13671436D01*
X9894158Y-13490484D02*
X10027491Y-13490484D01*
X10027491Y-13490484D02*
X9941777Y-13690484D01*
X10132253Y-13576198D02*
X10113206Y-13566674D01*
X10113206Y-13566674D02*
X10103682Y-13557150D01*
X10103682Y-13557150D02*
X10094158Y-13538103D01*
X10094158Y-13538103D02*
X10094158Y-13528579D01*
X10094158Y-13528579D02*
X10103682Y-13509531D01*
X10103682Y-13509531D02*
X10113206Y-13500008D01*
X10113206Y-13500008D02*
X10132253Y-13490484D01*
X10132253Y-13490484D02*
X10170349Y-13490484D01*
X10170349Y-13490484D02*
X10189396Y-13500008D01*
X10189396Y-13500008D02*
X10198920Y-13509531D01*
X10198920Y-13509531D02*
X10208444Y-13528579D01*
X10208444Y-13528579D02*
X10208444Y-13538103D01*
X10208444Y-13538103D02*
X10198920Y-13557150D01*
X10198920Y-13557150D02*
X10189396Y-13566674D01*
X10189396Y-13566674D02*
X10170349Y-13576198D01*
X10170349Y-13576198D02*
X10132253Y-13576198D01*
X10132253Y-13576198D02*
X10113206Y-13585722D01*
X10113206Y-13585722D02*
X10103682Y-13595246D01*
X10103682Y-13595246D02*
X10094158Y-13614293D01*
X10094158Y-13614293D02*
X10094158Y-13652388D01*
X10094158Y-13652388D02*
X10103682Y-13671436D01*
X10103682Y-13671436D02*
X10113206Y-13680960D01*
X10113206Y-13680960D02*
X10132253Y-13690484D01*
X10132253Y-13690484D02*
X10170349Y-13690484D01*
X10170349Y-13690484D02*
X10189396Y-13680960D01*
X10189396Y-13680960D02*
X10198920Y-13671436D01*
X10198920Y-13671436D02*
X10208444Y-13652388D01*
X10208444Y-13652388D02*
X10208444Y-13614293D01*
X10208444Y-13614293D02*
X10198920Y-13595246D01*
X10198920Y-13595246D02*
X10189396Y-13585722D01*
X10189396Y-13585722D02*
X10170349Y-13576198D01*
X10284634Y-13490484D02*
X10284634Y-13528579D01*
X10360825Y-13490484D02*
X10360825Y-13528579D01*
X10656063Y-13766674D02*
X10646539Y-13757150D01*
X10646539Y-13757150D02*
X10627491Y-13728579D01*
X10627491Y-13728579D02*
X10617968Y-13709531D01*
X10617968Y-13709531D02*
X10608444Y-13680960D01*
X10608444Y-13680960D02*
X10598920Y-13633341D01*
X10598920Y-13633341D02*
X10598920Y-13595246D01*
X10598920Y-13595246D02*
X10608444Y-13547627D01*
X10608444Y-13547627D02*
X10617968Y-13519055D01*
X10617968Y-13519055D02*
X10627491Y-13500008D01*
X10627491Y-13500008D02*
X10646539Y-13471436D01*
X10646539Y-13471436D02*
X10656063Y-13461912D01*
X10837015Y-13690484D02*
X10722730Y-13690484D01*
X10779872Y-13690484D02*
X10779872Y-13490484D01*
X10779872Y-13490484D02*
X10760825Y-13519055D01*
X10760825Y-13519055D02*
X10741777Y-13538103D01*
X10741777Y-13538103D02*
X10722730Y-13547627D01*
X11075111Y-13690484D02*
X11075111Y-13490484D01*
X11160825Y-13690484D02*
X11160825Y-13585722D01*
X11160825Y-13585722D02*
X11151301Y-13566674D01*
X11151301Y-13566674D02*
X11132253Y-13557150D01*
X11132253Y-13557150D02*
X11103682Y-13557150D01*
X11103682Y-13557150D02*
X11084634Y-13566674D01*
X11084634Y-13566674D02*
X11075111Y-13576198D01*
X11284634Y-13690484D02*
X11265587Y-13680960D01*
X11265587Y-13680960D02*
X11256063Y-13671436D01*
X11256063Y-13671436D02*
X11246539Y-13652388D01*
X11246539Y-13652388D02*
X11246539Y-13595246D01*
X11246539Y-13595246D02*
X11256063Y-13576198D01*
X11256063Y-13576198D02*
X11265587Y-13566674D01*
X11265587Y-13566674D02*
X11284634Y-13557150D01*
X11284634Y-13557150D02*
X11313206Y-13557150D01*
X11313206Y-13557150D02*
X11332253Y-13566674D01*
X11332253Y-13566674D02*
X11341777Y-13576198D01*
X11341777Y-13576198D02*
X11351301Y-13595246D01*
X11351301Y-13595246D02*
X11351301Y-13652388D01*
X11351301Y-13652388D02*
X11341777Y-13671436D01*
X11341777Y-13671436D02*
X11332253Y-13680960D01*
X11332253Y-13680960D02*
X11313206Y-13690484D01*
X11313206Y-13690484D02*
X11284634Y-13690484D01*
X11465587Y-13690484D02*
X11446539Y-13680960D01*
X11446539Y-13680960D02*
X11437015Y-13661912D01*
X11437015Y-13661912D02*
X11437015Y-13490484D01*
X11617968Y-13680960D02*
X11598920Y-13690484D01*
X11598920Y-13690484D02*
X11560825Y-13690484D01*
X11560825Y-13690484D02*
X11541777Y-13680960D01*
X11541777Y-13680960D02*
X11532253Y-13661912D01*
X11532253Y-13661912D02*
X11532253Y-13585722D01*
X11532253Y-13585722D02*
X11541777Y-13566674D01*
X11541777Y-13566674D02*
X11560825Y-13557150D01*
X11560825Y-13557150D02*
X11598920Y-13557150D01*
X11598920Y-13557150D02*
X11617968Y-13566674D01*
X11617968Y-13566674D02*
X11627491Y-13585722D01*
X11627491Y-13585722D02*
X11627491Y-13604769D01*
X11627491Y-13604769D02*
X11532253Y-13623817D01*
X11694158Y-13766674D02*
X11703682Y-13757150D01*
X11703682Y-13757150D02*
X11722730Y-13728579D01*
X11722730Y-13728579D02*
X11732253Y-13709531D01*
X11732253Y-13709531D02*
X11741777Y-13680960D01*
X11741777Y-13680960D02*
X11751301Y-13633341D01*
X11751301Y-13633341D02*
X11751301Y-13595246D01*
X11751301Y-13595246D02*
X11741777Y-13547627D01*
X11741777Y-13547627D02*
X11732253Y-13519055D01*
X11732253Y-13519055D02*
X11722730Y-13500008D01*
X11722730Y-13500008D02*
X11703682Y-13471436D01*
X11703682Y-13471436D02*
X11694158Y-13461912D01*
X12056063Y-13766674D02*
X12046539Y-13757150D01*
X12046539Y-13757150D02*
X12027491Y-13728579D01*
X12027491Y-13728579D02*
X12017968Y-13709531D01*
X12017968Y-13709531D02*
X12008444Y-13680960D01*
X12008444Y-13680960D02*
X11998920Y-13633341D01*
X11998920Y-13633341D02*
X11998920Y-13595246D01*
X11998920Y-13595246D02*
X12008444Y-13547627D01*
X12008444Y-13547627D02*
X12017968Y-13519055D01*
X12017968Y-13519055D02*
X12027491Y-13500008D01*
X12027491Y-13500008D02*
X12046539Y-13471436D01*
X12046539Y-13471436D02*
X12056063Y-13461912D01*
X12132253Y-13557150D02*
X12132253Y-13690484D01*
X12132253Y-13576198D02*
X12141777Y-13566674D01*
X12141777Y-13566674D02*
X12160825Y-13557150D01*
X12160825Y-13557150D02*
X12189396Y-13557150D01*
X12189396Y-13557150D02*
X12208444Y-13566674D01*
X12208444Y-13566674D02*
X12217968Y-13585722D01*
X12217968Y-13585722D02*
X12217968Y-13690484D01*
X12341777Y-13690484D02*
X12322730Y-13680960D01*
X12322730Y-13680960D02*
X12313206Y-13671436D01*
X12313206Y-13671436D02*
X12303682Y-13652388D01*
X12303682Y-13652388D02*
X12303682Y-13595246D01*
X12303682Y-13595246D02*
X12313206Y-13576198D01*
X12313206Y-13576198D02*
X12322730Y-13566674D01*
X12322730Y-13566674D02*
X12341777Y-13557150D01*
X12341777Y-13557150D02*
X12370349Y-13557150D01*
X12370349Y-13557150D02*
X12389396Y-13566674D01*
X12389396Y-13566674D02*
X12398920Y-13576198D01*
X12398920Y-13576198D02*
X12408444Y-13595246D01*
X12408444Y-13595246D02*
X12408444Y-13652388D01*
X12408444Y-13652388D02*
X12398920Y-13671436D01*
X12398920Y-13671436D02*
X12389396Y-13680960D01*
X12389396Y-13680960D02*
X12370349Y-13690484D01*
X12370349Y-13690484D02*
X12341777Y-13690484D01*
X12465587Y-13557150D02*
X12541777Y-13557150D01*
X12494158Y-13490484D02*
X12494158Y-13661912D01*
X12494158Y-13661912D02*
X12503682Y-13680960D01*
X12503682Y-13680960D02*
X12522730Y-13690484D01*
X12522730Y-13690484D02*
X12541777Y-13690484D01*
X12760825Y-13557150D02*
X12760825Y-13757150D01*
X12760825Y-13566674D02*
X12779872Y-13557150D01*
X12779872Y-13557150D02*
X12817968Y-13557150D01*
X12817968Y-13557150D02*
X12837015Y-13566674D01*
X12837015Y-13566674D02*
X12846539Y-13576198D01*
X12846539Y-13576198D02*
X12856063Y-13595246D01*
X12856063Y-13595246D02*
X12856063Y-13652388D01*
X12856063Y-13652388D02*
X12846539Y-13671436D01*
X12846539Y-13671436D02*
X12837015Y-13680960D01*
X12837015Y-13680960D02*
X12817968Y-13690484D01*
X12817968Y-13690484D02*
X12779872Y-13690484D01*
X12779872Y-13690484D02*
X12760825Y-13680960D01*
X12970349Y-13690484D02*
X12951301Y-13680960D01*
X12951301Y-13680960D02*
X12941777Y-13661912D01*
X12941777Y-13661912D02*
X12941777Y-13490484D01*
X13132253Y-13690484D02*
X13132253Y-13585722D01*
X13132253Y-13585722D02*
X13122730Y-13566674D01*
X13122730Y-13566674D02*
X13103682Y-13557150D01*
X13103682Y-13557150D02*
X13065587Y-13557150D01*
X13065587Y-13557150D02*
X13046539Y-13566674D01*
X13132253Y-13680960D02*
X13113206Y-13690484D01*
X13113206Y-13690484D02*
X13065587Y-13690484D01*
X13065587Y-13690484D02*
X13046539Y-13680960D01*
X13046539Y-13680960D02*
X13037015Y-13661912D01*
X13037015Y-13661912D02*
X13037015Y-13642865D01*
X13037015Y-13642865D02*
X13046539Y-13623817D01*
X13046539Y-13623817D02*
X13065587Y-13614293D01*
X13065587Y-13614293D02*
X13113206Y-13614293D01*
X13113206Y-13614293D02*
X13132253Y-13604769D01*
X13198920Y-13557150D02*
X13275111Y-13557150D01*
X13227492Y-13490484D02*
X13227492Y-13661912D01*
X13227492Y-13661912D02*
X13237015Y-13680960D01*
X13237015Y-13680960D02*
X13256063Y-13690484D01*
X13256063Y-13690484D02*
X13275111Y-13690484D01*
X13417968Y-13680960D02*
X13398920Y-13690484D01*
X13398920Y-13690484D02*
X13360825Y-13690484D01*
X13360825Y-13690484D02*
X13341777Y-13680960D01*
X13341777Y-13680960D02*
X13332253Y-13661912D01*
X13332253Y-13661912D02*
X13332253Y-13585722D01*
X13332253Y-13585722D02*
X13341777Y-13566674D01*
X13341777Y-13566674D02*
X13360825Y-13557150D01*
X13360825Y-13557150D02*
X13398920Y-13557150D01*
X13398920Y-13557150D02*
X13417968Y-13566674D01*
X13417968Y-13566674D02*
X13427492Y-13585722D01*
X13427492Y-13585722D02*
X13427492Y-13604769D01*
X13427492Y-13604769D02*
X13332253Y-13623817D01*
X13598920Y-13690484D02*
X13598920Y-13490484D01*
X13598920Y-13680960D02*
X13579873Y-13690484D01*
X13579873Y-13690484D02*
X13541777Y-13690484D01*
X13541777Y-13690484D02*
X13522730Y-13680960D01*
X13522730Y-13680960D02*
X13513206Y-13671436D01*
X13513206Y-13671436D02*
X13503682Y-13652388D01*
X13503682Y-13652388D02*
X13503682Y-13595246D01*
X13503682Y-13595246D02*
X13513206Y-13576198D01*
X13513206Y-13576198D02*
X13522730Y-13566674D01*
X13522730Y-13566674D02*
X13541777Y-13557150D01*
X13541777Y-13557150D02*
X13579873Y-13557150D01*
X13579873Y-13557150D02*
X13598920Y-13566674D01*
X13675111Y-13766674D02*
X13684634Y-13757150D01*
X13684634Y-13757150D02*
X13703682Y-13728579D01*
X13703682Y-13728579D02*
X13713206Y-13709531D01*
X13713206Y-13709531D02*
X13722730Y-13680960D01*
X13722730Y-13680960D02*
X13732253Y-13633341D01*
X13732253Y-13633341D02*
X13732253Y-13595246D01*
X13732253Y-13595246D02*
X13722730Y-13547627D01*
X13722730Y-13547627D02*
X13713206Y-13519055D01*
X13713206Y-13519055D02*
X13703682Y-13500008D01*
X13703682Y-13500008D02*
X13684634Y-13471436D01*
X13684634Y-13471436D02*
X13675111Y-13461912D01*
M02*
